<svg width="20" height="20" viewBox="0 0 20 20" fill="none" xmlns="http://www.w3.org/2000/svg">
<path fill-rule="evenodd" clip-rule="evenodd" d="M9.974 0.761719C4.465 0.761719 0 5.15142 0 10.5675C0 14.8992 2.857 18.5752 6.821 19.8729C7.32 19.9614 7.5 19.6596 7.5 19.4C7.5 19.167 7.492 18.5496 7.489 17.7326C4.714 18.3245 4.128 16.4172 4.128 16.4172C3.676 15.2846 3.021 14.9828 3.021 14.9828C2.116 14.3742 3.09 14.388 3.09 14.388C4.092 14.4568 4.617 15.3987 4.617 15.3987C5.507 16.897 6.953 16.4644 7.519 16.2137C7.61 15.5796 7.87 15.147 8.154 14.9022C5.94 14.6554 3.612 13.8138 3.612 10.0553C3.612 8.98664 4.001 8.10968 4.636 7.42542C4.535 7.17669 4.19 6.1788 4.735 4.82994C4.735 4.82994 5.572 4.56547 7.477 5.83372C8.29059 5.61612 9.12984 5.50505 9.973 5.50339C10.8162 5.50473 11.6555 5.61581 12.469 5.83372C14.375 4.56449 15.211 4.82994 15.211 4.82994C15.756 6.1788 15.414 7.17669 15.31 7.42542C15.95 8.10968 16.334 8.98566 16.334 10.0553C16.334 13.8237 14.004 14.6515 11.782 14.8943C12.137 15.1971 12.457 15.7949 12.457 16.7092C12.457 18.0207 12.445 19.0785 12.445 19.4C12.445 19.6625 12.623 19.9673 13.132 19.8709C17.094 18.5712 19.948 14.8982 19.948 10.5675C19.948 5.15142 15.483 0.761719 9.974 0.761719Z" fill="#F3F3F3"/>
</svg>
