<svg width="18" height="19" viewBox="0 0 18 19" fill="none" xmlns="http://www.w3.org/2000/svg">
<path fill-rule="evenodd" clip-rule="evenodd" d="M5.28955 0.797721C6.24927 0.754282 6.55527 0.744629 9 0.744629C11.4447 0.744629 11.7507 0.755086 12.7096 0.797721C13.6685 0.840355 14.3231 0.990782 14.8958 1.20878C15.4955 1.4316 16.0396 1.77992 16.4896 2.23039C16.9478 2.67202 17.3013 3.20616 17.5271 3.7966C17.7496 4.3597 17.9018 5.00323 17.946 5.94441C17.9902 6.8896 18 7.19046 18 9.59326C18 11.9969 17.9894 12.2977 17.946 13.2413C17.9026 14.1825 17.7496 14.826 17.5271 15.3891C17.3013 15.9796 16.9472 16.5147 16.4896 16.9569C16.0396 17.4074 15.4955 17.7549 14.8958 17.9769C14.3231 18.1957 13.6685 18.3454 12.7113 18.3888C11.7507 18.4322 11.4447 18.4419 9 18.4419C6.55527 18.4419 6.24927 18.4314 5.28955 18.3888C4.33227 18.3462 3.67773 18.1957 3.105 17.9769C2.50439 17.7549 1.96022 17.4068 1.51036 16.9569C1.05249 16.515 0.698167 15.9803 0.472091 15.3899C0.250364 14.8268 0.0981818 14.1833 0.054 13.2421C0.00981817 12.2969 0 11.9961 0 9.59326C0 7.18965 0.0106364 6.8888 0.054 5.94602C0.0973636 5.00323 0.250364 4.3597 0.472091 3.7966C0.6985 3.20622 1.0531 2.67147 1.51118 2.22959C1.9604 1.77952 2.50402 1.43116 3.10418 1.20878C3.67691 0.990782 4.33145 0.841159 5.28873 0.797721H5.28955ZM12.6368 2.39047C11.6877 2.34784 11.403 2.33899 9 2.33899C6.597 2.33899 6.31227 2.34784 5.36318 2.39047C4.48527 2.42989 4.00909 2.57388 3.69164 2.69535C3.27191 2.85623 2.97164 3.04688 2.65664 3.35658C2.35804 3.6422 2.12824 3.98989 1.98409 4.37418C1.86055 4.68629 1.71409 5.15447 1.674 6.01761C1.63064 6.95074 1.62164 7.23068 1.62164 9.59326C1.62164 11.9558 1.63064 12.2358 1.674 13.1689C1.71409 14.0321 1.86055 14.5002 1.98409 14.8123C2.12809 15.1961 2.358 15.5444 2.65664 15.8299C2.94709 16.1236 3.30136 16.3496 3.69164 16.4912C4.00909 16.6126 4.48527 16.7566 5.36318 16.796C6.31227 16.8387 6.59618 16.8475 9 16.8475C11.4038 16.8475 11.6877 16.8387 12.6368 16.796C13.5147 16.7566 13.9909 16.6126 14.3084 16.4912C14.7281 16.3303 15.0284 16.1396 15.3434 15.8299C15.642 15.5444 15.8719 15.1961 16.0159 14.8123C16.1395 14.5002 16.2859 14.0321 16.326 13.1689C16.3694 12.2358 16.3784 11.9558 16.3784 9.59326C16.3784 7.23068 16.3694 6.95074 16.326 6.01761C16.2859 5.15447 16.1395 4.68629 16.0159 4.37418C15.8523 3.96151 15.6584 3.66629 15.3434 3.35658C15.0528 3.06303 14.6992 2.8371 14.3084 2.69535C13.9909 2.57388 13.5147 2.42989 12.6368 2.39047ZM7.85045 12.3211C8.49245 12.5838 9.20731 12.6193 9.87294 12.4214C10.5386 12.2235 11.1137 11.8045 11.5 11.2361C11.8864 10.6676 12.06 9.98491 11.9913 9.30456C11.9226 8.62421 11.6157 7.98842 11.1232 7.50579C10.8092 7.19727 10.4295 6.96104 10.0115 6.81411C9.59355 6.66717 9.14762 6.61317 8.70586 6.65601C8.2641 6.69885 7.83749 6.83746 7.45675 7.06185C7.07601 7.28625 6.75061 7.59085 6.50397 7.95373C6.25734 8.31661 6.09561 8.72874 6.03042 9.16045C5.96524 9.59216 5.99821 10.0327 6.12699 10.4504C6.25576 10.8681 6.47712 11.2525 6.77514 11.5759C7.07315 11.8994 7.4404 12.1539 7.85045 12.3211ZM5.72891 6.37719C6.15847 5.95484 6.66844 5.61983 7.2297 5.39126C7.79095 5.16269 8.3925 5.04504 9 5.04504C9.6075 5.04504 10.209 5.16269 10.7703 5.39126C11.3316 5.61983 11.8415 5.95484 12.2711 6.37719C12.7007 6.79953 13.0414 7.30092 13.2739 7.85273C13.5064 8.40455 13.626 8.99598 13.626 9.59326C13.626 10.1905 13.5064 10.782 13.2739 11.3338C13.0414 11.8856 12.7007 12.387 12.2711 12.8093C11.4035 13.6623 10.2269 14.1415 9 14.1415C7.7731 14.1415 6.59646 13.6623 5.72891 12.8093C4.86136 11.9564 4.37398 10.7995 4.37398 9.59326C4.37398 8.387 4.86136 7.23014 5.72891 6.37719ZM14.652 5.72239C14.7584 5.62366 14.8437 5.50494 14.9026 5.37325C14.9616 5.24156 14.993 5.09958 14.9952 4.95572C14.9973 4.81186 14.97 4.66904 14.915 4.53571C14.86 4.40239 14.7784 4.28128 14.6749 4.17954C14.5714 4.0778 14.4482 3.99751 14.3126 3.94342C14.177 3.88933 14.0317 3.86255 13.8854 3.86464C13.7391 3.86674 13.5947 3.89768 13.4607 3.95563C13.3268 4.01359 13.2061 4.09737 13.1056 4.20203C12.9103 4.40557 12.8034 4.67593 12.8076 4.95572C12.8117 5.2355 12.9266 5.50268 13.1279 5.70054C13.3291 5.8984 13.6008 6.01136 13.8854 6.01544C14.17 6.01952 14.445 5.91439 14.652 5.72239Z" fill="#F3F3F3"/>
</svg>
