<svg width="18" height="19" viewBox="0 0 18 19" fill="none" xmlns="http://www.w3.org/2000/svg">
<path d="M10 18.4419H6V6.64372H10V8.61008C10.4211 8.08336 10.9555 7.65479 11.565 7.35511C12.1744 7.05543 12.8438 6.89206 13.525 6.87673C14.7164 6.88323 15.8565 7.35399 16.6954 8.18577C17.5343 9.01755 18.0035 10.1425 18 11.3138V18.4419H14V11.8054C13.9226 11.2741 13.6527 10.7881 13.2398 10.4369C12.8269 10.0857 12.2989 9.89296 11.753 9.89411C11.5087 9.90171 11.2684 9.95776 11.0466 10.0589C10.8249 10.16 10.6262 10.3042 10.4624 10.4827C10.2987 10.6612 10.1734 10.8703 10.0939 11.0976C10.0144 11.3249 9.9825 11.5657 10 11.8054V18.4419ZM4 18.4419H0V6.64372H4V18.4419ZM2 4.67735C1.46957 4.67735 0.960859 4.47018 0.585786 4.10142C0.210714 3.73266 0 3.2325 0 2.71099C0 2.18948 0.210714 1.68933 0.585786 1.32056C0.960859 0.951799 1.46957 0.744629 2 0.744629C2.53043 0.744629 3.03914 0.951799 3.41421 1.32056C3.78929 1.68933 4 2.18948 4 2.71099C4 3.2325 3.78929 3.73266 3.41421 4.10142C3.03914 4.47018 2.53043 4.67735 2 4.67735Z" fill="#F3F3F3"/>
</svg>
