<svg width="20" height="17" viewBox="0 0 20 17" fill="none" xmlns="http://www.w3.org/2000/svg">
<path d="M17.633 4.62235C17.646 4.7944 17.646 4.96547 17.646 5.13654C17.646 10.3718 13.593 16.4043 6.186 16.4043C3.904 16.4043 1.784 15.7544 0 14.6258C0.324 14.6622 0.636 14.675 0.973 14.675C2.78599 14.6793 4.54765 14.0832 5.974 12.983C5.13342 12.968 4.31858 12.6954 3.64324 12.2031C2.9679 11.7108 2.46578 11.0235 2.207 10.2371C2.456 10.2734 2.706 10.298 2.968 10.298C3.329 10.298 3.692 10.2489 4.029 10.1633C3.11676 9.98225 2.29647 9.49612 1.70762 8.78761C1.11876 8.07909 0.797693 7.19193 0.799 6.27698V6.22782C1.336 6.52178 1.959 6.70563 2.619 6.7302C2.06609 6.36899 1.61272 5.87883 1.29934 5.30346C0.98596 4.7281 0.822313 4.08542 0.823 3.43276C0.823 2.69737 1.022 2.02293 1.371 1.43502C2.38314 2.65904 3.6455 3.66041 5.07634 4.37427C6.50717 5.08812 8.07456 5.49854 9.677 5.57895C9.615 5.28401 9.577 4.97825 9.577 4.67151C9.57674 4.15139 9.68075 3.63632 9.88308 3.15575C10.0854 2.67517 10.3821 2.23851 10.7562 1.87073C11.1303 1.50295 11.5744 1.21126 12.0632 1.01234C12.5521 0.813422 13.076 0.711168 13.605 0.711426C14.765 0.711426 15.812 1.18923 16.548 1.96198C17.4498 1.79054 18.3145 1.46689 19.104 1.00538C18.8034 1.92051 18.1738 2.69649 17.333 3.18795C18.1328 3.09827 18.9144 2.89149 19.652 2.57448C19.1011 3.36403 18.4185 4.05641 17.633 4.62235Z" fill="#F3F3F3"/>
</svg>
